<?xml version="1.0" encoding="UTF-8"?>
<svg id="Layer_2" data-name="Layer 2" xmlns="http://www.w3.org/2000/svg" viewBox="0 0 588 42">
  <defs>
    <style>
      .cls-1 {
        fill: #02475d;
      }

      .cls-1, .cls-2, .cls-3 {
        stroke-width: 0px;
      }

      .cls-4, .cls-2, .cls-5 {
        fill: #5cd84e;
      }

      .cls-6, .cls-3 {
        fill: #fff;
      }

      .cls-5, .cls-7 {
        font-family: CenturyGothic-Bold, 'Century Gothic', sans-serif, 'Futura';
        font-size: 18px;
        font-weight: 500;
      }
    </style>
  </defs>
  <g id="Interactive_bottom" data-name="Interactive bottom">
    <g>
      <rect class="cls-1" x="0" width="588" height="42" rx="12" ry="12"/>
      <g>
        <text class="cls-5" transform="translate(101.11 24.66)"><tspan x="0" y="0">Now Platform</tspan></text>
        <text class="cls-5" transform="translate(203.49 19.33) scale(.58)"><tspan x="10" y="-10">®  </tspan></text>
        <text class="cls-7" transform="translate(210.39 24.66)"><tspan class="cls-4" x="10" y="0">: </tspan><tspan class="cls-6" x="24.95" y="0">The intelligent platform for digital business</tspan></text>
        <g>
          <path class="cls-3" d="M47.62,6.48c-8.02,0-14.52,6.5-14.52,14.52h4.46c0-5.56,4.5-10.06,10.06-10.06s10.06,4.5,10.06,10.06h4.46c0-8.02-6.5-14.52-14.52-14.52Z"/>
          <path class="cls-3" d="M72.25,35.52c8.02,0,14.52-6.5,14.52-14.52h-4.46c0,5.56-4.5,10.06-10.06,10.06s-10.06-4.5-10.06-10.06h-4.46c0,8.02,6.5,14.52,14.52,14.52Z"/>
          <path class="cls-2" d="M75,6.69v4.55c-.78-.2-1.61-.3-2.45-.3-5.56,0-10.06,4.5-10.06,10.06h-.05c0,8.02-6.5,14.52-14.51,14.52s-14.52-6.5-14.52-14.52h4.46c0,5.56,4.5,10.06,10.06,10.06s10.06-4.5,10.06-10.06h.05c0-8.02,6.5-14.52,14.51-14.52.84,0,1.66.07,2.45.21Z"/>
          <circle class="cls-3" cx="81.5" cy="13.5" r="4.5"/>
        </g>
      </g>
    </g>
  </g>
</svg>