<?xml version="1.0" encoding="UTF-8"?>
<svg id="Layer_2" data-name="Layer 2" xmlns="http://www.w3.org/2000/svg" viewBox="0 0 588 42">
  <defs>
    <style>
      .cls-1 {
        fill: #02475d;
      }

      .cls-1, .cls-2, .cls-3 {
        stroke-width: 0px;
      }

      .cls-4, .cls-2, .cls-5 {
        fill: #5cd84e;
      }

      .cls-6, .cls-3 {
        fill: #fff;
      }

      .cls-7, .cls-5 {
        font-family: CenturyGothic-Bold, 'Century Gothic';
        font-size: 17px;
        font-weight: 700;
      }
    </style>
  </defs>
  <g id="Interactive_bottom" data-name="Interactive bottom">
    <g>
      <rect class="cls-1" width="588" height="42" rx="12" ry="12"/>
      <g>
        <text class="cls-5" transform="translate(100.65 25.73)"><tspan x="0" y="0">Now Platform</tspan></text>
        <text class="cls-5" transform="translate(209.44 20.07) scale(.58)"><tspan x="0" y="0">®</tspan></text>
        <text class="cls-7" transform="translate(216.77 25.73)"><tspan class="cls-4" x="0" y="0">: </tspan><tspan class="cls-6" x="9.51" y="0">The intelligent platform for digital business</tspan></text>
        <g>
          <path class="cls-3" d="M47.16,6.94c-8.02,0-14.52,6.5-14.52,14.52h4.46c0-5.56,4.5-10.06,10.06-10.06s10.06,4.5,10.06,10.06h4.46c0-8.02-6.5-14.52-14.52-14.52Z"/>
          <path class="cls-3" d="M71.79,35.97c8.02,0,14.52-6.5,14.52-14.52h-4.46c0,5.56-4.5,10.06-10.06,10.06s-10.06-4.5-10.06-10.06h-4.46c0,8.02,6.5,14.52,14.52,14.52Z"/>
          <path class="cls-2" d="M74.24,7.14v4.55c-.78-.2-1.61-.3-2.45-.3-5.56,0-10.06,4.5-10.06,10.06h-.05c0,8.02-6.5,14.52-14.51,14.52s-14.52-6.5-14.52-14.52h4.46c0,5.56,4.5,10.06,10.06,10.06s10.06-4.5,10.06-10.06h.05c0-8.02,6.5-14.52,14.51-14.52.84,0,1.66.07,2.45.21Z"/>
          <circle class="cls-3" cx="81.52" cy="14.07" r="4.39"/>
        </g>
      </g>
    </g>
  </g>
</svg>